<svg width="24" height="25" viewBox="0 0 24 25" fill="none" xmlns="http://www.w3.org/2000/svg">
<g clip-path="url(#clip0_1_1356)">
<g filter="url(#filter0_d_1_1356)">
<path d="M3.33154 15.8517C3.33154 11.0884 7.19329 7.22668 11.9565 7.22668H12.3788C17.1413 7.22668 21.0038 11.0884 21.0038 15.8517V16.0662C21.0038 17.8166 20.3084 19.4953 19.0707 20.7331C17.833 21.9708 16.1542 22.6662 14.4038 22.6662H9.93154C8.18111 22.6662 6.50238 21.9708 5.26464 20.7331C4.0269 19.4953 3.33154 17.8166 3.33154 16.0662V15.8517Z" fill="url(#paint0_radial_1_1356)"/>
<path d="M3.33154 15.8517C3.33154 11.0884 7.19329 7.22668 11.9565 7.22668H12.3788C17.1413 7.22668 21.0038 11.0884 21.0038 15.8517V16.0662C21.0038 17.8166 20.3084 19.4953 19.0707 20.7331C17.833 21.9708 16.1542 22.6662 14.4038 22.6662H9.93154C8.18111 22.6662 6.50238 21.9708 5.26464 20.7331C4.0269 19.4953 3.33154 17.8166 3.33154 16.0662V15.8517Z" fill="url(#paint1_radial_1_1356)"/>
</g>
<path d="M3.33154 15.8517C3.33154 11.0884 7.19329 7.22668 11.9565 7.22668H12.3788C17.1413 7.22668 21.0038 11.0884 21.0038 15.8517V16.0662C21.0038 17.8166 20.3084 19.4953 19.0707 20.7331C17.833 21.9708 16.1542 22.6662 14.4038 22.6662H9.93154C8.18111 22.6662 6.50238 21.9708 5.26464 20.7331C4.0269 19.4953 3.33154 17.8166 3.33154 16.0662V15.8517Z" fill="url(#paint2_radial_1_1356)"/>
<path d="M3.33154 15.8517C3.33154 11.0884 7.19329 7.22668 11.9565 7.22668H12.3788C17.1413 7.22668 21.0038 11.0884 21.0038 15.8517V16.0662C21.0038 17.8166 20.3084 19.4953 19.0707 20.7331C17.833 21.9708 16.1542 22.6662 14.4038 22.6662H9.93154C8.18111 22.6662 6.50238 21.9708 5.26464 20.7331C4.0269 19.4953 3.33154 17.8166 3.33154 16.0662V15.8517Z" fill="url(#paint3_radial_1_1356)"/>
<g filter="url(#filter1_dd_1_1356)">
<path d="M9.12087 3.71068C9.47337 4.31143 9.98712 5.08243 10.6471 5.71468H13.6884C14.3484 5.08243 14.8614 4.31218 15.2146 3.71068C15.2569 3.63693 15.2836 3.5553 15.2931 3.47084C15.3026 3.38637 15.2947 3.30085 15.2699 3.21955C15.2451 3.13825 15.2039 3.06289 15.1489 2.99812C15.0938 2.93335 15.0261 2.88053 14.9499 2.84293C14.7099 2.71993 14.4279 2.77843 14.1946 2.91418C13.6681 3.22093 13.3644 2.85943 12.9001 2.14918C12.6669 1.79218 12.3106 1.77343 12.1674 1.77118C12.0249 1.77343 11.6686 1.79218 11.4354 2.14918C10.9704 2.85943 10.6674 3.22093 10.1409 2.91418C9.90762 2.77843 9.62562 2.71993 9.38487 2.84293C9.3087 2.8806 9.24106 2.93346 9.18609 2.99827C9.13113 3.06307 9.09001 3.13844 9.06528 3.21973C9.04055 3.30103 9.03272 3.38652 9.04228 3.47096C9.05184 3.55539 9.07859 3.63697 9.12087 3.71068Z" fill="url(#paint4_linear_1_1356)"/>
</g>
<g filter="url(#filter2_f_1_1356)">
<path d="M12.6 10.883C12.6 10.7238 12.5367 10.5712 12.4242 10.4587C12.3117 10.3462 12.1591 10.283 12 10.283C11.8408 10.283 11.6882 10.3462 11.5757 10.4587C11.4632 10.5712 11.4 10.7238 11.4 10.883V11.4492C11.4 11.5835 11.31 11.6997 11.1847 11.7477C10.9683 11.8299 10.7644 11.9418 10.5787 12.08C10.3052 12.2803 10.0837 12.5432 9.93275 12.8467C9.78177 13.1502 9.70572 13.4855 9.71096 13.8245C9.71096 14.6195 10.0695 15.1955 10.5562 15.5645C11.0197 15.917 11.58 16.0685 12.0262 16.109C12.2077 16.1255 12.4785 16.1742 12.702 16.3152C12.8962 16.4375 13.089 16.6467 13.1295 17.0952C13.1685 17.5242 12.9945 17.7792 12.7672 17.9525C12.5047 18.1527 12.1995 18.2165 12.1222 18.2165C11.9415 18.2165 11.6317 18.1925 11.3692 18.05C11.1487 17.93 10.9117 17.7042 10.8622 17.1515C10.848 16.9929 10.7714 16.8465 10.6492 16.7445C10.5271 16.6424 10.3694 16.5931 10.2108 16.6073C10.0523 16.6216 9.90591 16.6982 9.80387 16.8203C9.70182 16.9425 9.65249 17.1002 9.66671 17.2587C9.75221 18.218 10.2292 18.7962 10.797 19.1052C10.9222 19.1727 11.049 19.226 11.1727 19.268C11.2373 19.2882 11.294 19.3281 11.3348 19.3822C11.3755 19.4363 11.3983 19.5018 11.4 19.5695V20.0817C11.4 20.2408 11.4632 20.3935 11.5757 20.506C11.6882 20.6185 11.8408 20.6817 12 20.6817C12.1591 20.6817 12.3117 20.6185 12.4242 20.506C12.5367 20.3935 12.6 20.2408 12.6 20.0817V19.5747C12.6 19.4397 12.6915 19.322 12.819 19.2747C13.044 19.1922 13.2795 19.0707 13.494 18.9072C13.9927 18.527 14.4075 17.8947 14.325 16.9872C14.2485 16.1465 13.827 15.6402 13.335 15.3297C12.9645 15.1037 12.548 14.9638 12.1162 14.9202C11.4345 14.885 10.911 14.5085 10.911 13.8245C10.911 13.448 11.061 13.172 11.2815 13.007C11.7382 12.62 12.5145 12.6725 12.8812 13.1585C13.0432 13.3737 13.116 13.6107 13.1325 13.8245C13.158 14.1545 13.4437 14.4177 13.7745 14.3922C14.1045 14.3675 14.3512 14.1087 14.3257 13.778C14.2896 13.303 14.1198 12.848 13.836 12.4655C13.608 12.1625 13.1767 11.873 12.8235 11.7275C12.7597 11.7035 12.7045 11.6613 12.6647 11.606C12.625 11.5508 12.6024 11.485 12.6 11.417V10.883Z" fill="url(#paint5_linear_1_1356)"/>
</g>
<g filter="url(#filter3_dd_1_1356)">
<path d="M12.7501 10.8064C12.7501 10.6473 12.6869 10.4947 12.5743 10.3822C12.4618 10.2696 12.3092 10.2064 12.1501 10.2064C11.9909 10.2064 11.8383 10.2696 11.7258 10.3822C11.6133 10.4947 11.5501 10.6473 11.5501 10.8064V11.3727C11.5501 11.5077 11.4601 11.6232 11.3348 11.6712C11.1185 11.7534 10.9145 11.8652 10.7288 12.0034C10.4555 12.2039 10.2342 12.4668 10.0834 12.7703C9.93252 13.0738 9.85656 13.409 9.86182 13.7479C9.86182 14.5429 10.2196 15.1189 10.7063 15.4879C11.1698 15.8404 11.7293 15.9927 12.1763 16.0332C12.3578 16.0497 12.6286 16.0977 12.8528 16.2387C13.0463 16.3609 13.2391 16.5702 13.2803 17.0187C13.3193 17.4484 13.1446 17.7034 12.9166 17.8767C12.6541 18.0769 12.3496 18.1399 12.2716 18.1399C12.0916 18.1399 11.7818 18.1159 11.5193 17.9742C11.2988 17.8542 11.0618 17.6277 11.0123 17.0757C11.0053 16.9972 10.9829 16.9208 10.9464 16.851C10.9099 16.7811 10.86 16.7192 10.7996 16.6686C10.7391 16.618 10.6693 16.5799 10.5941 16.5563C10.5189 16.5327 10.4398 16.5242 10.3613 16.5312C10.2828 16.5382 10.2065 16.5605 10.1366 16.597C10.0668 16.6336 10.0048 16.6835 9.95424 16.7439C9.90368 16.8044 9.86552 16.8742 9.84194 16.9494C9.81836 17.0246 9.80983 17.1037 9.81682 17.1822C9.90232 18.1422 10.3793 18.7204 10.9471 19.0287C11.0723 19.0962 11.1991 19.1502 11.3228 19.1914C11.4541 19.2364 11.5501 19.3549 11.5501 19.4937V20.0059C11.5501 20.1651 11.6133 20.3177 11.7258 20.4302C11.8383 20.5427 11.9909 20.6059 12.1501 20.6059C12.3092 20.6059 12.4618 20.5427 12.5743 20.4302C12.6869 20.3177 12.7501 20.1651 12.7501 20.0059V19.4989C12.7501 19.3632 12.8416 19.2462 12.9691 19.1989C13.1941 19.1164 13.4296 18.9949 13.6441 18.8314C14.1428 18.4512 14.5576 17.8182 14.4751 16.9107C14.3986 16.0699 13.9771 15.5644 13.4851 15.2532C13.1146 15.0272 12.6981 14.8872 12.2663 14.8437C11.5846 14.8084 11.0611 14.4319 11.0611 13.7487C11.0611 13.3722 11.2111 13.0962 11.4316 12.9312C11.8883 12.5442 12.6646 12.5967 13.0313 13.0827C13.1933 13.2979 13.2661 13.5349 13.2826 13.7479C13.3081 14.0779 13.5938 14.3419 13.9246 14.3164C14.2546 14.2909 14.5013 14.0322 14.4758 13.7014C14.4398 13.2265 14.27 12.7714 13.9861 12.3889C13.7581 12.0867 13.3268 11.7964 12.9736 11.6509C12.9098 11.627 12.8546 11.5847 12.8148 11.5295C12.7751 11.4742 12.7525 11.4085 12.7501 11.3404V10.8064Z" fill="url(#paint6_linear_1_1356)"/>
</g>
<g filter="url(#filter4_d_1_1356)">
<path d="M13.512 5.71466H10.788C10.3527 5.71466 9.99976 6.06757 9.99976 6.50291V6.50816C9.99976 6.9435 10.3527 7.29641 10.788 7.29641H13.512C13.9473 7.29641 14.3003 6.9435 14.3003 6.50816V6.50291C14.3003 6.06757 13.9473 5.71466 13.512 5.71466Z" fill="url(#paint7_linear_1_1356)"/>
<path d="M13.512 5.71466H10.788C10.3527 5.71466 9.99976 6.06757 9.99976 6.50291V6.50816C9.99976 6.9435 10.3527 7.29641 10.788 7.29641H13.512C13.9473 7.29641 14.3003 6.9435 14.3003 6.50816V6.50291C14.3003 6.06757 13.9473 5.71466 13.512 5.71466Z" fill="url(#paint8_radial_1_1356)"/>
</g>
<path d="M13.512 5.71466H10.788C10.3527 5.71466 9.99976 6.06757 9.99976 6.50291V6.50816C9.99976 6.9435 10.3527 7.29641 10.788 7.29641H13.512C13.9473 7.29641 14.3003 6.9435 14.3003 6.50816V6.50291C14.3003 6.06757 13.9473 5.71466 13.512 5.71466Z" fill="url(#paint9_radial_1_1356)"/>
</g>
<defs>
<filter id="filter0_d_1_1356" x="0.831543" y="2.22668" width="24.6724" height="22.4395" filterUnits="userSpaceOnUse" color-interpolation-filters="sRGB">
<feFlood flood-opacity="0" result="BackgroundImageFix"/>
<feColorMatrix in="SourceAlpha" type="matrix" values="0 0 0 0 0 0 0 0 0 0 0 0 0 0 0 0 0 0 127 0" result="hardAlpha"/>
<feOffset dx="1" dy="-1.5"/>
<feGaussianBlur stdDeviation="1.75"/>
<feComposite in2="hardAlpha" operator="out"/>
<feColorMatrix type="matrix" values="0 0 0 0 0.713726 0 0 0 0 0.321569 0 0 0 0 0.211765 0 0 0 1 0"/>
<feBlend mode="normal" in2="BackgroundImageFix" result="effect1_dropShadow_1_1356"/>
<feBlend mode="normal" in="SourceGraphic" in2="effect1_dropShadow_1_1356" result="shape"/>
</filter>
<filter id="filter1_dd_1_1356" x="8.53833" y="1.02118" width="7.35879" height="5.19348" filterUnits="userSpaceOnUse" color-interpolation-filters="sRGB">
<feFlood flood-opacity="0" result="BackgroundImageFix"/>
<feColorMatrix in="SourceAlpha" type="matrix" values="0 0 0 0 0 0 0 0 0 0 0 0 0 0 0 0 0 0 127 0" result="hardAlpha"/>
<feOffset dx="-0.2" dy="0.2"/>
<feGaussianBlur stdDeviation="0.15"/>
<feComposite in2="hardAlpha" operator="out"/>
<feColorMatrix type="matrix" values="0 0 0 0 1 0 0 0 0 0.92549 0 0 0 0 0.403922 0 0 0 1 0"/>
<feBlend mode="normal" in2="BackgroundImageFix" result="effect1_dropShadow_1_1356"/>
<feColorMatrix in="SourceAlpha" type="matrix" values="0 0 0 0 0 0 0 0 0 0 0 0 0 0 0 0 0 0 127 0" result="hardAlpha"/>
<feOffset dx="0.1" dy="-0.25"/>
<feGaussianBlur stdDeviation="0.25"/>
<feComposite in2="hardAlpha" operator="out"/>
<feColorMatrix type="matrix" values="0 0 0 0 0.788235 0 0 0 0 0.364706 0 0 0 0 0.12549 0 0 0 1 0"/>
<feBlend mode="normal" in2="effect1_dropShadow_1_1356" result="effect2_dropShadow_1_1356"/>
<feBlend mode="normal" in="SourceGraphic" in2="effect2_dropShadow_1_1356" result="shape"/>
</filter>
<filter id="filter2_f_1_1356" x="9.36431" y="9.98296" width="5.27114" height="10.9987" filterUnits="userSpaceOnUse" color-interpolation-filters="sRGB">
<feFlood flood-opacity="0" result="BackgroundImageFix"/>
<feBlend mode="normal" in="SourceGraphic" in2="BackgroundImageFix" result="shape"/>
<feGaussianBlur stdDeviation="0.15" result="effect1_foregroundBlur_1_1356"/>
</filter>
<filter id="filter3_dd_1_1356" x="9.49445" y="9.70642" width="5.44114" height="11.2695" filterUnits="userSpaceOnUse" color-interpolation-filters="sRGB">
<feFlood flood-opacity="0" result="BackgroundImageFix"/>
<feColorMatrix in="SourceAlpha" type="matrix" values="0 0 0 0 0 0 0 0 0 0 0 0 0 0 0 0 0 0 127 0" result="hardAlpha"/>
<feOffset dx="0.15" dy="-0.2"/>
<feGaussianBlur stdDeviation="0.15"/>
<feComposite in2="hardAlpha" operator="out"/>
<feColorMatrix type="matrix" values="0 0 0 0 0.352941 0 0 0 0 0.168627 0 0 0 0 0.188235 0 0 0 1 0"/>
<feBlend mode="normal" in2="BackgroundImageFix" result="effect1_dropShadow_1_1356"/>
<feColorMatrix in="SourceAlpha" type="matrix" values="0 0 0 0 0 0 0 0 0 0 0 0 0 0 0 0 0 0 127 0" result="hardAlpha"/>
<feOffset dx="-0.1" dy="0.15"/>
<feGaussianBlur stdDeviation="0.11"/>
<feComposite in2="hardAlpha" operator="out"/>
<feColorMatrix type="matrix" values="0 0 0 0 0.670588 0 0 0 0 0.458824 0 0 0 0 0.403922 0 0 0 1 0"/>
<feBlend mode="normal" in2="effect1_dropShadow_1_1356" result="effect2_dropShadow_1_1356"/>
<feBlend mode="normal" in="SourceGraphic" in2="effect2_dropShadow_1_1356" result="shape"/>
</filter>
<filter id="filter4_d_1_1356" x="8.99976" y="4.11466" width="6.30054" height="3.58173" filterUnits="userSpaceOnUse" color-interpolation-filters="sRGB">
<feFlood flood-opacity="0" result="BackgroundImageFix"/>
<feColorMatrix in="SourceAlpha" type="matrix" values="0 0 0 0 0 0 0 0 0 0 0 0 0 0 0 0 0 0 127 0" result="hardAlpha"/>
<feOffset dy="-0.6"/>
<feGaussianBlur stdDeviation="0.5"/>
<feComposite in2="hardAlpha" operator="out"/>
<feColorMatrix type="matrix" values="0 0 0 0 0.388235 0 0 0 0 0.223529 0 0 0 0 0.109804 0 0 0 1 0"/>
<feBlend mode="normal" in2="BackgroundImageFix" result="effect1_dropShadow_1_1356"/>
<feBlend mode="normal" in="SourceGraphic" in2="effect1_dropShadow_1_1356" result="shape"/>
</filter>
<radialGradient id="paint0_radial_1_1356" cx="0" cy="0" r="1" gradientUnits="userSpaceOnUse" gradientTransform="translate(14.5809 8.67433) rotate(100.07) scale(13.8064 14.4607)">
<stop stop-color="#F6C93B"/>
<stop offset="1" stop-color="#E88340"/>
</radialGradient>
<radialGradient id="paint1_radial_1_1356" cx="0" cy="0" r="1" gradientUnits="userSpaceOnUse" gradientTransform="translate(18.0506 10.8296) rotate(133.199) scale(5.27276 8.83395)">
<stop stop-color="#FFE065"/>
<stop offset="1" stop-color="#FFE065" stop-opacity="0"/>
</radialGradient>
<radialGradient id="paint2_radial_1_1356" cx="0" cy="0" r="1" gradientUnits="userSpaceOnUse" gradientTransform="translate(4.55029 10.8304) rotate(31.6513) scale(4.01979 9.96247)">
<stop offset="0.187" stop-color="#FFA45D"/>
<stop offset="1" stop-color="#FFA45D" stop-opacity="0"/>
</radialGradient>
<radialGradient id="paint3_radial_1_1356" cx="0" cy="0" r="1" gradientUnits="userSpaceOnUse" gradientTransform="translate(12.1673 19.1269) rotate(-90) scale(12.2344 18.4329)">
<stop offset="0.928" stop-color="#F3BD46" stop-opacity="0"/>
<stop offset="0.98" stop-color="#917011"/>
</radialGradient>
<linearGradient id="paint4_linear_1_1356" x1="13.1079" y1="3.10768" x2="12.1674" y2="5.71468" gradientUnits="userSpaceOnUse">
<stop stop-color="#F3C048"/>
<stop offset="1" stop-color="#E67A41"/>
</linearGradient>
<linearGradient id="paint5_linear_1_1356" x1="12" y1="10.5312" x2="12" y2="20.141" gradientUnits="userSpaceOnUse">
<stop stop-color="#A6782C"/>
<stop offset="1" stop-color="#B95940"/>
</linearGradient>
<linearGradient id="paint6_linear_1_1356" x1="14.7458" y1="16.5957" x2="9.81457" y2="16.5957" gradientUnits="userSpaceOnUse">
<stop stop-color="#9D6360"/>
<stop offset="1" stop-color="#724A4D"/>
</linearGradient>
<linearGradient id="paint7_linear_1_1356" x1="10.5975" y1="6.50591" x2="14.3003" y2="6.50591" gradientUnits="userSpaceOnUse">
<stop stop-color="#834B41"/>
<stop offset="1" stop-color="#735854"/>
</linearGradient>
<radialGradient id="paint8_radial_1_1356" cx="0" cy="0" r="1" gradientUnits="userSpaceOnUse" gradientTransform="translate(13.5503 6.25991) rotate(180) scale(1.40039 1.05469)">
<stop stop-color="#7D5A54"/>
<stop offset="1" stop-color="#7D5A54" stop-opacity="0"/>
</radialGradient>
<radialGradient id="paint9_radial_1_1356" cx="0" cy="0" r="1" gradientUnits="userSpaceOnUse" gradientTransform="translate(13.7378 6.50591) rotate(180) scale(4.14844 3.32327)">
<stop offset="0.695" stop-color="#B3624D" stop-opacity="0"/>
<stop offset="0.96" stop-color="#B3624D"/>
</radialGradient>
<clipPath id="clip0_1_1356">
<rect width="24" height="24" fill="white" transform="translate(0 0.189453)"/>
</clipPath>
</defs>
</svg>
