<svg width="32" height="30" viewBox="0 0 32 30" fill="none" xmlns="http://www.w3.org/2000/svg">
<mask id="mask0_1_1559" style="mask-type:luminance" maskUnits="userSpaceOnUse" x="0" y="0" width="32" height="32">
<path d="M0 0H32V32H0V0Z" fill="white"/>
</mask>
<g mask="url(#mask0_1_1559)">
<path d="M30.625 14.6875C30.625 23.1444 23.7694 30 15.3125 30C6.85563 30 0 23.1444 0 14.6875C0 6.23063 6.85563 -0.625 15.3125 -0.625C23.7694 -0.625 30.625 6.23063 30.625 14.6875Z" fill="#B2CBFC" fill-opacity="0.4"/>
<path d="M17.4626 24.0285L20.6758 20.8152C21.1671 20.324 21.1671 19.5274 20.6758 19.0361C20.4006 18.7609 20.0135 18.6286 19.6274 18.6777L19.1508 18.7384C17.2821 18.9762 15.4086 18.3357 14.0766 17.0037C12.1808 15.1079 11.7481 12.1952 13.0109 9.83024L14.5601 6.92924C14.7834 6.51099 14.7069 5.99593 14.3716 5.66062C13.9511 5.24012 13.2693 5.24012 12.8488 5.66062L5.97175 12.5377C5.227 13.2824 4.76488 14.2236 4.57232 15.2621C4.26838 16.9012 2.84057 18.0731 1.174 18.1147C0.912441 18.1213 0.654754 18.1429 0.400879 18.1763C0.893254 20.2902 1.83925 22.3197 3.23932 24.1096L3.23938 24.1091H3.63657V24.5959H3.63644C3.83788 24.8328 4.04738 25.0651 4.26557 25.2922L4.26613 25.2921H4.70813V25.7341L4.70775 25.7345C4.93494 25.9527 5.16732 26.1623 5.40425 26.3637L5.40432 26.3637L5.89113 26.3637V26.7609L5.89088 26.7611C7.68069 28.1611 9.71019 29.107 11.8239 29.5994C11.8573 29.3456 11.8789 29.088 11.8855 28.8265C11.9273 27.1598 13.0993 25.7319 14.7386 25.4279C15.7769 25.2352 16.7179 24.7731 17.4626 24.0285Z" fill="#FF4155"/>
<path d="M8.37519 14.6876C8.37519 12.705 8.75194 10.8104 9.43782 9.07162L5.97169 12.5377C5.227 13.2824 4.76488 14.2236 4.57225 15.2621C4.26838 16.9012 2.8405 18.0731 1.174 18.1148C0.912379 18.1214 0.654691 18.143 0.400879 18.1763C0.893254 20.2902 1.83919 22.3197 3.23925 24.1096L3.23938 24.1092H3.6365V24.5959L3.63644 24.596C3.83782 24.8329 4.04732 25.0652 4.2655 25.2923L4.26613 25.2922H4.70807V25.7341L4.70775 25.7346C4.93494 25.9527 5.16732 26.1623 5.40419 26.3638L5.40432 26.3637H5.89107V26.7609L5.89082 26.7611C7.68069 28.1611 9.71013 29.1071 11.8239 29.5994C11.8573 29.3456 11.8789 29.0881 11.8854 28.8265C11.9143 27.6744 12.4835 26.6366 13.3736 26.0051C10.3024 23.2046 8.37519 19.1712 8.37519 14.6876Z" fill="#E80054"/>
<path d="M13.8531 20.1245L9.87561 16.147C9.50948 15.7809 8.91592 15.7809 8.5498 16.147L2.16211 22.5347C3.46348 24.7108 5.2893 26.5367 7.46542 27.838L13.8531 21.4503C14.2192 21.0842 14.2192 20.4906 13.8531 20.1245Z" fill="#E80054"/>
<path d="M8.45336 16.2434L2.16211 22.5347C3.46348 24.7108 5.2893 26.5366 7.46542 27.838L11.4333 23.8701C9.80592 21.7018 8.74042 19.0876 8.45336 16.2434Z" fill="#CC0053"/>
<path d="M28.4378 7.08685L22.9133 1.56242L23.5763 0.899478L29.1006 6.42392L28.4378 7.08685Z" fill="#543E5B"/>
<path d="M28.106 7.41831C27.923 7.23524 27.923 6.93843 28.106 6.75537L28.769 6.09243C28.952 5.90937 29.2489 5.90937 29.4319 6.09243C29.615 6.27549 29.615 6.57231 29.4319 6.75537L28.769 7.41831C28.5859 7.60137 28.2891 7.60137 28.106 7.41831Z" fill="#6C5475"/>
<path d="M22.5819 1.89389C22.7649 2.07695 23.0618 2.07695 23.2448 1.89389L23.9078 1.23095C24.0908 1.04789 24.0908 0.75108 23.9078 0.568017C23.7246 0.384954 23.4279 0.384954 23.2448 0.568017L22.5819 1.23095C22.3988 1.41402 22.3988 1.71083 22.5819 1.89389Z" fill="#6C5475"/>
<path d="M10.8699 21.3398L8.66016 19.1301L24.5705 3.21972L26.7802 5.42953L10.8699 21.3398Z" fill="#6C5475"/>
<path d="M18.8622 7.60247C19.0452 7.41941 19.342 7.41941 19.525 7.60247L22.3978 10.4752C22.5808 10.6582 22.5808 10.955 22.3978 11.1381C22.2147 11.3212 21.918 11.3212 21.7348 11.1381L18.8622 8.26534C18.6791 8.08234 18.6791 7.78553 18.8622 7.60247Z" fill="#D3DCFB"/>
<path d="M21.1087 5.35583C21.2919 5.17276 21.5886 5.17276 21.7717 5.35583L24.6444 8.22851C24.8274 8.41158 24.8274 8.70839 24.6444 8.89145C24.4614 9.07451 24.1645 9.07451 23.9815 8.89145L21.1087 6.01876C20.9257 5.8357 20.9257 5.53889 21.1087 5.35583Z" fill="#D3DCFB"/>
<path d="M14.3687 12.0957C14.5518 11.9126 14.8486 11.9126 15.0317 12.0957L17.9044 14.9684C18.0874 15.1514 18.0874 15.4483 17.9044 15.6313C17.7214 15.8144 17.4246 15.8144 17.2415 15.6313L14.3687 12.7586C14.1857 12.5756 14.1857 12.2788 14.3687 12.0957Z" fill="#D3DCFB"/>
<path d="M16.6156 9.849C16.7987 9.66594 17.0955 9.66594 17.2785 9.849L20.1512 12.7217C20.3343 12.9048 20.3343 13.2016 20.1512 13.3846C19.9682 13.5678 19.6714 13.5678 19.4883 13.3846L16.6156 10.5119C16.4325 10.3289 16.4325 10.0321 16.6156 9.849Z" fill="#D3DCFB"/>
<path d="M12.1222 14.3423C12.3052 14.1592 12.602 14.1592 12.7851 14.3423L15.6578 17.215C15.8408 17.398 15.8408 17.6948 15.6578 17.8779C15.4747 18.061 15.1779 18.061 14.9948 17.8779L12.1222 15.0052C11.9391 14.8222 11.9391 14.5253 12.1222 14.3423Z" fill="#D3DCFB"/>
<path d="M7.33456 19.1301L8.43944 18.0252C8.62244 17.8422 8.91925 17.8422 9.10231 18.0252L11.9751 20.898C12.1581 21.0811 12.1581 21.3778 11.9751 21.5609L10.8702 22.6657C10.6871 22.8488 10.3904 22.8488 10.2072 22.6657L7.33456 19.793C7.1515 19.6099 7.1515 19.3132 7.33456 19.1301Z" fill="#543E5B"/>
<path d="M8.71223 17.892C8.61248 17.9045 8.51598 17.9486 8.43942 18.0252L7.33461 19.1301C7.15148 19.3131 7.15148 19.6099 7.33461 19.793L10.2073 22.6656C10.337 22.7953 10.5235 22.8327 10.6865 22.7787C9.76405 21.2996 9.08698 19.6518 8.71223 17.892Z" fill="#45304C"/>
<path d="M4.24057 22.2236L5.34544 21.1188C5.52844 20.9358 5.82526 20.9358 6.00832 21.1188L8.88107 23.9915C9.06413 24.1746 9.06413 24.4714 8.88107 24.6545L7.77619 25.7593C7.59313 25.9424 7.29638 25.9424 7.11326 25.7593L4.24057 22.8866C4.05751 22.7035 4.05751 22.4067 4.24057 22.2236Z" fill="#45304C"/>
<path d="M3.63663 24.5959L24.4603 3.7722L24.0183 3.33026L3.2395 24.1091C3.36806 24.2734 3.50044 24.4357 3.63663 24.5959Z" fill="#E9EFFF"/>
<path d="M25.1233 4.43507L4.26636 25.292C4.33842 25.367 4.41067 25.4419 4.48454 25.5158C4.55842 25.5897 4.63336 25.6619 4.70829 25.7339L25.5652 4.87701L25.1233 4.43507Z" fill="#E9EFFF"/>
<path d="M5.89087 26.7609L26.6697 5.98205L26.2277 5.54005L5.40405 26.3637C5.56424 26.4999 5.72655 26.6323 5.89087 26.7609Z" fill="#E9EFFF"/>
<path d="M30.8684 4.65613L25.344 -0.868309L26.0069 -1.53125L31.5314 3.99319L30.8684 4.65613Z" fill="#543E5B"/>
<path d="M26.1173 6.53444L23.4655 3.88275C23.2215 3.63862 23.2215 3.24287 23.4655 2.99881L27.4431 -0.978751C27.6872 -1.22288 28.083 -1.22288 28.327 -0.978751L30.9788 1.67294C31.2228 1.91706 31.2228 2.31281 30.9788 2.55687L27.0012 6.53444C26.7571 6.77856 26.3613 6.77856 26.1173 6.53444Z" fill="#FF4155"/>
<path d="M24.7914 4.32462L28.769 0.346995C29.0131 0.102932 29.4088 0.102932 29.6529 0.346995L28.327 -0.978817C28.083 -1.22294 27.6872 -1.22294 27.4431 -0.978817L23.4655 2.99874C23.2215 3.24281 23.2215 3.63856 23.4655 3.88268L24.7914 5.20856C24.5473 4.96443 24.5473 4.56868 24.7914 4.32462Z" fill="#E80054"/>
<path d="M30.537 4.98758C30.3539 4.80452 30.3539 4.50771 30.537 4.32464L31.1999 3.66171C31.3829 3.47864 31.6798 3.47864 31.8629 3.66171C32.0459 3.84477 32.0459 4.14158 31.8629 4.32464L31.1999 4.98758C31.0169 5.17064 30.7201 5.17064 30.537 4.98758Z" fill="#6C5475"/>
<path d="M28.0698 1.19419C27.8866 1.37725 27.5899 1.37725 27.4068 1.19419C27.2238 1.01112 27.2238 0.71431 27.4068 0.531248C27.5899 0.348185 27.8866 0.348185 28.0698 0.531248C28.2528 0.71431 28.2528 1.01112 28.0698 1.19419Z" fill="#543E5B"/>
<path d="M29.4692 2.59366C29.2861 2.77672 28.9892 2.77672 28.8062 2.59366C28.6232 2.4106 28.6232 2.11379 28.8062 1.93072C28.9892 1.74766 29.2861 1.74766 29.4692 1.93072C29.6522 2.11379 29.6522 2.4106 29.4692 2.59366Z" fill="#6C5475"/>
<path d="M25.6757 3.66178C25.4926 3.84484 25.1958 3.84484 25.0128 3.66178C24.8297 3.47871 24.8297 3.1819 25.0128 2.99884C25.1958 2.81578 25.4926 2.81578 25.6757 2.99884C25.8588 3.1819 25.8588 3.47871 25.6757 3.66178Z" fill="#543E5B"/>
<path d="M27.0014 4.98758C26.8183 5.17064 26.5215 5.17064 26.3385 4.98758C26.1554 4.80452 26.1554 4.50771 26.3385 4.32464C26.5215 4.14158 26.8183 4.14158 27.0014 4.32464C27.1845 4.50771 27.1845 4.80452 27.0014 4.98758Z" fill="#6C5475"/>
<path d="M17.2073 22.1529C16.8413 22.519 16.2477 22.519 15.8815 22.1529C15.5154 21.7868 15.5154 21.1932 15.8815 20.8271C16.2477 20.461 16.8413 20.461 17.2073 20.8271C17.5735 21.1932 17.5735 21.7868 17.2073 22.1529Z" fill="#6C5475"/>
<path d="M16.5444 21.49C16.7897 21.2448 17.1368 21.1647 17.4493 21.248C17.4083 21.0939 17.3282 20.948 17.2073 20.8271C16.8412 20.461 16.2476 20.461 15.8815 20.8271C15.5154 21.1932 15.5154 21.7868 15.8815 22.1529C16.0024 22.2738 16.1482 22.354 16.3023 22.395C16.2191 22.0824 16.2992 21.7353 16.5444 21.49Z" fill="#543E5B"/>
</g>
</svg>
