<svg width="23" height="23" viewBox="0 0 23 23" fill="none" xmlns="http://www.w3.org/2000/svg">
<mask id="mask0_1_1377" style="mask-type:luminance" maskUnits="userSpaceOnUse" x="0" y="0" width="23" height="23">
<path d="M0.355469 0.189453H22.3555V22.1895H0.355469V0.189453Z" fill="white"/>
</mask>
<g mask="url(#mask0_1_1377)">
<path d="M7.63057 9.62055C8.45557 9.31668 9.25788 10.119 8.95401 10.9447L7.15482 15.8355C7.11501 15.9439 7.04855 16.0405 6.96158 16.1164C6.87461 16.1923 6.76992 16.2451 6.65717 16.2699C6.54442 16.2947 6.42725 16.2907 6.31645 16.2583C6.20565 16.2259 6.1048 16.1661 6.0232 16.0844L2.49082 12.5521C2.40932 12.4704 2.34967 12.3696 2.31734 12.2589C2.28502 12.1482 2.28107 12.0311 2.30586 11.9185C2.33065 11.8059 2.38338 11.7013 2.45919 11.6143C2.535 11.5274 2.63147 11.461 2.7397 11.4211L7.63057 9.61986V9.62055Z" fill="url(#paint0_linear_1_1377)"/>
<path d="M7.63057 9.62055C8.45557 9.31668 9.25788 10.119 8.95401 10.9447L7.15482 15.8355C7.11501 15.9439 7.04855 16.0405 6.96158 16.1164C6.87461 16.1923 6.76992 16.2451 6.65717 16.2699C6.54442 16.2947 6.42725 16.2907 6.31645 16.2583C6.20565 16.2259 6.1048 16.1661 6.0232 16.0844L2.49082 12.5521C2.40932 12.4704 2.34967 12.3696 2.31734 12.2589C2.28502 12.1482 2.28107 12.0311 2.30586 11.9185C2.33065 11.8059 2.38338 11.7013 2.45919 11.6143C2.535 11.5274 2.63147 11.461 2.7397 11.4211L7.63057 9.61986V9.62055Z" fill="url(#paint1_radial_1_1377)"/>
<path d="M7.63057 9.62055C8.45557 9.31668 9.25788 10.119 8.95401 10.9447L7.15482 15.8355C7.11501 15.9439 7.04855 16.0405 6.96158 16.1164C6.87461 16.1923 6.76992 16.2451 6.65717 16.2699C6.54442 16.2947 6.42725 16.2907 6.31645 16.2583C6.20565 16.2259 6.1048 16.1661 6.0232 16.0844L2.49082 12.5521C2.40932 12.4704 2.34967 12.3696 2.31734 12.2589C2.28502 12.1482 2.28107 12.0311 2.30586 11.9185C2.33065 11.8059 2.38338 11.7013 2.45919 11.6143C2.535 11.5274 2.63147 11.461 2.7397 11.4211L7.63057 9.61986V9.62055Z" fill="url(#paint2_linear_1_1377)"/>
<path d="M11.7548 13.7456C12.5805 13.4417 13.3828 14.244 13.079 15.0697L11.2784 19.9605C11.2385 20.0688 11.1721 20.1652 11.0852 20.2411C10.9983 20.3169 10.8937 20.3696 10.781 20.3944C10.6684 20.4192 10.5513 20.4152 10.4406 20.3829C10.3299 20.3506 10.2291 20.2909 10.1475 20.2094L6.61509 16.6771C6.53359 16.5954 6.47393 16.4946 6.44161 16.3839C6.40929 16.2732 6.40534 16.1561 6.43013 16.0435C6.45492 15.9309 6.50764 15.8263 6.58346 15.7393C6.65927 15.6524 6.75573 15.586 6.86397 15.5461L11.7548 13.7449V13.7456Z" fill="url(#paint3_linear_1_1377)"/>
<path d="M11.7548 13.7456C12.5805 13.4417 13.3828 14.244 13.079 15.0697L11.2784 19.9605C11.2385 20.0688 11.1721 20.1652 11.0852 20.2411C10.9983 20.3169 10.8937 20.3696 10.781 20.3944C10.6684 20.4192 10.5513 20.4152 10.4406 20.3829C10.3299 20.3506 10.2291 20.2909 10.1475 20.2094L6.61509 16.6771C6.53359 16.5954 6.47393 16.4946 6.44161 16.3839C6.40929 16.2732 6.40534 16.1561 6.43013 16.0435C6.45492 15.9309 6.50764 15.8263 6.58346 15.7393C6.65927 15.6524 6.75573 15.586 6.86397 15.5461L11.7548 13.7449V13.7456Z" fill="url(#paint4_radial_1_1377)"/>
<path d="M11.7548 13.7456C12.5805 13.4417 13.3828 14.244 13.079 15.0697L11.2784 19.9605C11.2385 20.0688 11.1721 20.1652 11.0852 20.2411C10.9983 20.3169 10.8937 20.3696 10.781 20.3944C10.6684 20.4192 10.5513 20.4152 10.4406 20.3829C10.3299 20.3506 10.2291 20.2909 10.1475 20.2094L6.61509 16.6771C6.53359 16.5954 6.47393 16.4946 6.44161 16.3839C6.40929 16.2732 6.40534 16.1561 6.43013 16.0435C6.45492 15.9309 6.50764 15.8263 6.58346 15.7393C6.65927 15.6524 6.75573 15.586 6.86397 15.5461L11.7548 13.7449V13.7456Z" fill="url(#paint5_radial_1_1377)"/>
<g filter="url(#filter0_d_1_1377)">
<path d="M15.7556 2.63007C15.7744 2.62261 15.795 2.62085 15.8148 2.625C15.8346 2.62916 15.8527 2.63905 15.867 2.65344L19.9129 6.73032C19.9272 6.74462 19.9369 6.7628 19.941 6.7826C19.945 6.8024 19.9431 6.82295 19.9356 6.84169C18.9662 9.22044 17.6304 11.7504 15.8422 13.5393C14.1001 15.2814 11.1535 16.7658 8.49284 17.8575L4.71777 14.0818C5.80952 11.4211 7.29384 8.47519 9.03596 6.73307C10.8303 4.93869 13.37 3.60013 15.7549 2.63076L15.7556 2.63007Z" fill="url(#paint6_linear_1_1377)"/>
<path d="M15.7556 2.63007C15.7744 2.62261 15.795 2.62085 15.8148 2.625C15.8346 2.62916 15.8527 2.63905 15.867 2.65344L19.9129 6.73032C19.9272 6.74462 19.9369 6.7628 19.941 6.7826C19.945 6.8024 19.9431 6.82295 19.9356 6.84169C18.9662 9.22044 17.6304 11.7504 15.8422 13.5393C14.1001 15.2814 11.1535 16.7658 8.49284 17.8575L4.71777 14.0818C5.80952 11.4211 7.29384 8.47519 9.03596 6.73307C10.8303 4.93869 13.37 3.60013 15.7549 2.63076L15.7556 2.63007Z" fill="url(#paint7_radial_1_1377)"/>
<path d="M15.7556 2.63007C15.7744 2.62261 15.795 2.62085 15.8148 2.625C15.8346 2.62916 15.8527 2.63905 15.867 2.65344L19.9129 6.73032C19.9272 6.74462 19.9369 6.7628 19.941 6.7826C19.945 6.8024 19.9431 6.82295 19.9356 6.84169C18.9662 9.22044 17.6304 11.7504 15.8422 13.5393C14.1001 15.2814 11.1535 16.7658 8.49284 17.8575L4.71777 14.0818C5.80952 11.4211 7.29384 8.47519 9.03596 6.73307C10.8303 4.93869 13.37 3.60013 15.7549 2.63076L15.7556 2.63007Z" fill="url(#paint8_radial_1_1377)"/>
<path d="M15.7556 2.63007C15.7744 2.62261 15.795 2.62085 15.8148 2.625C15.8346 2.62916 15.8527 2.63905 15.867 2.65344L19.9129 6.73032C19.9272 6.74462 19.9369 6.7628 19.941 6.7826C19.945 6.8024 19.9431 6.82295 19.9356 6.84169C18.9662 9.22044 17.6304 11.7504 15.8422 13.5393C14.1001 15.2814 11.1535 16.7658 8.49284 17.8575L4.71777 14.0818C5.80952 11.4211 7.29384 8.47519 9.03596 6.73307C10.8303 4.93869 13.37 3.60013 15.7549 2.63076L15.7556 2.63007Z" fill="url(#paint9_radial_1_1377)"/>
<path d="M15.7556 2.63007C15.7744 2.62261 15.795 2.62085 15.8148 2.625C15.8346 2.62916 15.8527 2.63905 15.867 2.65344L19.9129 6.73032C19.9272 6.74462 19.9369 6.7628 19.941 6.7826C19.945 6.8024 19.9431 6.82295 19.9356 6.84169C18.9662 9.22044 17.6304 11.7504 15.8422 13.5393C14.1001 15.2814 11.1535 16.7658 8.49284 17.8575L4.71777 14.0818C5.80952 11.4211 7.29384 8.47519 9.03596 6.73307C10.8303 4.93869 13.37 3.60013 15.7549 2.63076L15.7556 2.63007Z" fill="url(#paint10_radial_1_1377)"/>
</g>
<g filter="url(#filter1_ddd_1_1377)">
<path d="M17.1992 7.79456C17.2045 8.10123 17.1487 8.40587 17.035 8.69073C16.9213 8.97558 16.752 9.23494 16.537 9.45368C16.322 9.67242 16.0656 9.84615 15.7828 9.96474C15.4999 10.0833 15.1963 10.1444 14.8896 10.1444C14.5829 10.1444 14.2792 10.0833 13.9964 9.96474C13.7135 9.84615 13.4571 9.67242 13.2421 9.45368C13.0271 9.23494 12.8579 8.97558 12.7442 8.69073C12.6305 8.40587 12.5746 8.10123 12.5799 7.79456C12.5904 7.18891 12.8383 6.61159 13.2703 6.18697C13.7023 5.76235 14.2838 5.52441 14.8896 5.52441C15.4953 5.52441 16.0768 5.76235 16.5089 6.18697C16.9409 6.61159 17.1888 7.18891 17.1992 7.79456Z" fill="url(#paint11_linear_1_1377)"/>
<path d="M17.1992 7.79456C17.2045 8.10123 17.1487 8.40587 17.035 8.69073C16.9213 8.97558 16.752 9.23494 16.537 9.45368C16.322 9.67242 16.0656 9.84615 15.7828 9.96474C15.4999 10.0833 15.1963 10.1444 14.8896 10.1444C14.5829 10.1444 14.2792 10.0833 13.9964 9.96474C13.7135 9.84615 13.4571 9.67242 13.2421 9.45368C13.0271 9.23494 12.8579 8.97558 12.7442 8.69073C12.6305 8.40587 12.5746 8.10123 12.5799 7.79456C12.5904 7.18891 12.8383 6.61159 13.2703 6.18697C13.7023 5.76235 14.2838 5.52441 14.8896 5.52441C15.4953 5.52441 16.0768 5.76235 16.5089 6.18697C16.9409 6.61159 17.1888 7.18891 17.1992 7.79456Z" fill="url(#paint12_radial_1_1377)"/>
</g>
<path d="M16.4884 7.79455C16.4928 8.00729 16.4548 8.21878 16.3764 8.41661C16.298 8.61445 16.181 8.79465 16.0321 8.94667C15.8832 9.09869 15.7054 9.21946 15.5093 9.30191C15.3131 9.38436 15.1024 9.42683 14.8897 9.42683C14.6769 9.42683 14.4662 9.38436 14.27 9.30191C14.0739 9.21946 13.8961 9.09869 13.7472 8.94667C13.5983 8.79465 13.4813 8.61445 13.4029 8.41661C13.3246 8.21878 13.2865 8.00729 13.2909 7.79455C13.2995 7.37626 13.4718 6.97804 13.7707 6.68529C14.0696 6.39254 14.4713 6.22858 14.8897 6.22858C15.308 6.22858 15.7097 6.39254 16.0086 6.68529C16.3075 6.97804 16.4798 7.37626 16.4884 7.79455Z" fill="url(#paint13_radial_1_1377)"/>
<g filter="url(#filter2_d_1_1377)">
<path d="M2.02129 20.4934C1.53523 20.0073 1.73048 16.6358 3.44923 15.9483C3.44923 15.9483 5.16798 15.2608 6.27554 16.3608C7.3831 17.4608 6.88673 18.6983 6.88673 18.6983C6.40067 20.1565 4.33129 20.7361 4.08792 20.4927C3.95385 20.3586 4.19517 20.1146 4.08792 20.0073C3.98067 19.8994 3.81429 20.0225 3.35917 20.25C3.03467 20.4123 2.21585 20.688 2.02129 20.4934Z" fill="url(#paint14_radial_1_1377)"/>
<path d="M2.02129 20.4934C1.53523 20.0073 1.73048 16.6358 3.44923 15.9483C3.44923 15.9483 5.16798 15.2608 6.27554 16.3608C7.3831 17.4608 6.88673 18.6983 6.88673 18.6983C6.40067 20.1565 4.33129 20.7361 4.08792 20.4927C3.95385 20.3586 4.19517 20.1146 4.08792 20.0073C3.98067 19.8994 3.81429 20.0225 3.35917 20.25C3.03467 20.4123 2.21585 20.688 2.02129 20.4934Z" fill="url(#paint15_radial_1_1377)"/>
</g>
<path d="M4.52176 14.6146C4.61753 14.5188 4.73124 14.4427 4.8564 14.3909C4.98156 14.339 5.11572 14.3123 5.2512 14.3123C5.38668 14.3123 5.52083 14.339 5.64599 14.3909C5.77115 14.4427 5.88487 14.5188 5.98064 14.6146L8.41095 17.0456C8.59553 17.2406 8.69674 17.5 8.69307 17.7685C8.6894 18.037 8.58113 18.2935 8.39129 18.4834C8.20145 18.6734 7.94501 18.7818 7.6765 18.7856C7.40799 18.7894 7.14859 18.6883 6.95345 18.5038L4.52176 16.0735C4.42593 15.9777 4.34991 15.864 4.29804 15.7388C4.24618 15.6137 4.21948 15.4795 4.21948 15.344C4.21948 15.2086 4.24618 15.0744 4.29804 14.9492C4.34991 14.8241 4.42593 14.7104 4.52176 14.6146Z" fill="url(#paint16_linear_1_1377)"/>
<path d="M4.52176 14.6146C4.61753 14.5188 4.73124 14.4427 4.8564 14.3909C4.98156 14.339 5.11572 14.3123 5.2512 14.3123C5.38668 14.3123 5.52083 14.339 5.64599 14.3909C5.77115 14.4427 5.88487 14.5188 5.98064 14.6146L8.41095 17.0456C8.59553 17.2406 8.69674 17.5 8.69307 17.7685C8.6894 18.037 8.58113 18.2935 8.39129 18.4834C8.20145 18.6734 7.94501 18.7818 7.6765 18.7856C7.40799 18.7894 7.14859 18.6883 6.95345 18.5038L4.52176 16.0735C4.42593 15.9777 4.34991 15.864 4.29804 15.7388C4.24618 15.6137 4.21948 15.4795 4.21948 15.344C4.21948 15.2086 4.24618 15.0744 4.29804 14.9492C4.34991 14.8241 4.42593 14.7104 4.52176 14.6146Z" fill="url(#paint17_radial_1_1377)"/>
<path d="M4.52176 14.6146C4.61753 14.5188 4.73124 14.4427 4.8564 14.3909C4.98156 14.339 5.11572 14.3123 5.2512 14.3123C5.38668 14.3123 5.52083 14.339 5.64599 14.3909C5.77115 14.4427 5.88487 14.5188 5.98064 14.6146L8.41095 17.0456C8.59553 17.2406 8.69674 17.5 8.69307 17.7685C8.6894 18.037 8.58113 18.2935 8.39129 18.4834C8.20145 18.6734 7.94501 18.7818 7.6765 18.7856C7.40799 18.7894 7.14859 18.6883 6.95345 18.5038L4.52176 16.0735C4.42593 15.9777 4.34991 15.864 4.29804 15.7388C4.24618 15.6137 4.21948 15.4795 4.21948 15.344C4.21948 15.2086 4.24618 15.0744 4.29804 14.9492C4.34991 14.8241 4.42593 14.7104 4.52176 14.6146Z" fill="url(#paint18_radial_1_1377)"/>
<path d="M20.4113 2.16326C19.7603 1.5122 18.6183 1.58576 17.7865 1.87176C17.1588 2.08685 16.5367 2.31769 15.9206 2.56407C15.9101 2.56829 15.9008 2.57504 15.8935 2.58372C15.8862 2.59241 15.8812 2.60275 15.8789 2.61384C15.8766 2.62493 15.877 2.63642 15.8802 2.64729C15.8834 2.65816 15.8893 2.66807 15.8972 2.67614L19.8916 6.69732C19.8996 6.70514 19.9094 6.71088 19.9202 6.71404C19.9309 6.71719 19.9423 6.71767 19.9533 6.71544C19.9643 6.7132 19.9745 6.70831 19.9832 6.7012C19.9919 6.69409 19.9986 6.68497 20.003 6.67464C20.2524 6.05207 20.486 5.42326 20.7035 4.78882C20.9854 3.96795 21.2123 2.9642 20.4113 2.16326Z" fill="url(#paint19_linear_1_1377)"/>
<path d="M20.4113 2.16326C19.7603 1.5122 18.6183 1.58576 17.7865 1.87176C17.1588 2.08685 16.5367 2.31769 15.9206 2.56407C15.9101 2.56829 15.9008 2.57504 15.8935 2.58372C15.8862 2.59241 15.8812 2.60275 15.8789 2.61384C15.8766 2.62493 15.877 2.63642 15.8802 2.64729C15.8834 2.65816 15.8893 2.66807 15.8972 2.67614L19.8916 6.69732C19.8996 6.70514 19.9094 6.71088 19.9202 6.71404C19.9309 6.71719 19.9423 6.71767 19.9533 6.71544C19.9643 6.7132 19.9745 6.70831 19.9832 6.7012C19.9919 6.69409 19.9986 6.68497 20.003 6.67464C20.2524 6.05207 20.486 5.42326 20.7035 4.78882C20.9854 3.96795 21.2123 2.9642 20.4113 2.16326Z" fill="url(#paint20_radial_1_1377)"/>
<path d="M20.4113 2.16326C19.7603 1.5122 18.6183 1.58576 17.7865 1.87176C17.1588 2.08685 16.5367 2.31769 15.9206 2.56407C15.9101 2.56829 15.9008 2.57504 15.8935 2.58372C15.8862 2.59241 15.8812 2.60275 15.8789 2.61384C15.8766 2.62493 15.877 2.63642 15.8802 2.64729C15.8834 2.65816 15.8893 2.66807 15.8972 2.67614L19.8916 6.69732C19.8996 6.70514 19.9094 6.71088 19.9202 6.71404C19.9309 6.71719 19.9423 6.71767 19.9533 6.71544C19.9643 6.7132 19.9745 6.70831 19.9832 6.7012C19.9919 6.69409 19.9986 6.68497 20.003 6.67464C20.2524 6.05207 20.486 5.42326 20.7035 4.78882C20.9854 3.96795 21.2123 2.9642 20.4113 2.16326Z" fill="url(#paint21_linear_1_1377)"/>
<path d="M9.69303 11.6831C10.518 11.3792 11.3203 12.1815 11.0165 13.0072L9.21659 17.898C9.17678 18.0064 9.11032 18.103 9.02335 18.1789C8.93637 18.2548 8.83169 18.3076 8.71894 18.3324C8.60619 18.3572 8.48901 18.3532 8.37822 18.3208C8.26742 18.2884 8.16657 18.2286 8.08496 18.1469L4.55259 14.6146C4.47109 14.5329 4.41143 14.4321 4.37911 14.3214C4.34679 14.2107 4.34284 14.0936 4.36763 13.981C4.39242 13.8684 4.44514 13.7638 4.52096 13.6768C4.59677 13.5899 4.69323 13.5235 4.80146 13.4836L9.69303 11.6824V11.6831Z" fill="url(#paint22_linear_1_1377)"/>
<path d="M9.69303 11.6831C10.518 11.3792 11.3203 12.1815 11.0165 13.0072L9.21659 17.898C9.17678 18.0064 9.11032 18.103 9.02335 18.1789C8.93637 18.2548 8.83169 18.3076 8.71894 18.3324C8.60619 18.3572 8.48901 18.3532 8.37822 18.3208C8.26742 18.2884 8.16657 18.2286 8.08496 18.1469L4.55259 14.6146C4.47109 14.5329 4.41143 14.4321 4.37911 14.3214C4.34679 14.2107 4.34284 14.0936 4.36763 13.981C4.39242 13.8684 4.44514 13.7638 4.52096 13.6768C4.59677 13.5899 4.69323 13.5235 4.80146 13.4836L9.69303 11.6824V11.6831Z" fill="url(#paint23_radial_1_1377)"/>
<path d="M9.69303 11.6831C10.518 11.3792 11.3203 12.1815 11.0165 13.0072L9.21659 17.898C9.17678 18.0064 9.11032 18.103 9.02335 18.1789C8.93637 18.2548 8.83169 18.3076 8.71894 18.3324C8.60619 18.3572 8.48901 18.3532 8.37822 18.3208C8.26742 18.2884 8.16657 18.2286 8.08496 18.1469L4.55259 14.6146C4.47109 14.5329 4.41143 14.4321 4.37911 14.3214C4.34679 14.2107 4.34284 14.0936 4.36763 13.981C4.39242 13.8684 4.44514 13.7638 4.52096 13.6768C4.59677 13.5899 4.69323 13.5235 4.80146 13.4836L9.69303 11.6824V11.6831Z" fill="url(#paint24_radial_1_1377)"/>
<path d="M9.69303 11.6831C10.518 11.3792 11.3203 12.1815 11.0165 13.0072L9.21659 17.898C9.17678 18.0064 9.11032 18.103 9.02335 18.1789C8.93637 18.2548 8.83169 18.3076 8.71894 18.3324C8.60619 18.3572 8.48901 18.3532 8.37822 18.3208C8.26742 18.2884 8.16657 18.2286 8.08496 18.1469L4.55259 14.6146C4.47109 14.5329 4.41143 14.4321 4.37911 14.3214C4.34679 14.2107 4.34284 14.0936 4.36763 13.981C4.39242 13.8684 4.44514 13.7638 4.52096 13.6768C4.59677 13.5899 4.69323 13.5235 4.80146 13.4836L9.69303 11.6824V11.6831Z" fill="url(#paint25_radial_1_1377)"/>
<g filter="url(#filter3_f_1_1377)">
<path d="M6.68384 15.3468L10.551 12.317L8.05884 16.7431L6.68384 15.3468Z" fill="url(#paint26_linear_1_1377)"/>
</g>
</g>
<defs>
<filter id="filter0_d_1_1377" x="2.96777" y="0.622803" width="18.2253" height="18.2347" filterUnits="userSpaceOnUse" color-interpolation-filters="sRGB">
<feFlood flood-opacity="0" result="BackgroundImageFix"/>
<feColorMatrix in="SourceAlpha" type="matrix" values="0 0 0 0 0 0 0 0 0 0 0 0 0 0 0 0 0 0 127 0" result="hardAlpha"/>
<feOffset dx="-0.25" dy="-0.5"/>
<feGaussianBlur stdDeviation="0.75"/>
<feComposite in2="hardAlpha" operator="out"/>
<feColorMatrix type="matrix" values="0 0 0 0 0.745098 0 0 0 0 0.772549 0 0 0 0 0.952941 0 0 0 1 0"/>
<feBlend mode="normal" in2="BackgroundImageFix" result="effect1_dropShadow_1_1377"/>
<feBlend mode="normal" in="SourceGraphic" in2="effect1_dropShadow_1_1377" result="shape"/>
</filter>
<filter id="filter1_ddd_1_1377" x="11.5796" y="4.77441" width="6.62012" height="6.62" filterUnits="userSpaceOnUse" color-interpolation-filters="sRGB">
<feFlood flood-opacity="0" result="BackgroundImageFix"/>
<feColorMatrix in="SourceAlpha" type="matrix" values="0 0 0 0 0 0 0 0 0 0 0 0 0 0 0 0 0 0 127 0" result="hardAlpha"/>
<feOffset dy="0.25"/>
<feGaussianBlur stdDeviation="0.5"/>
<feComposite in2="hardAlpha" operator="out"/>
<feColorMatrix type="matrix" values="0 0 0 0 0.866667 0 0 0 0 0.764706 0 0 0 0 0.847059 0 0 0 1 0"/>
<feBlend mode="normal" in2="BackgroundImageFix" result="effect1_dropShadow_1_1377"/>
<feColorMatrix in="SourceAlpha" type="matrix" values="0 0 0 0 0 0 0 0 0 0 0 0 0 0 0 0 0 0 127 0" result="hardAlpha"/>
<feOffset dx="-0.1" dy="0.1"/>
<feGaussianBlur stdDeviation="0.05"/>
<feComposite in2="hardAlpha" operator="out"/>
<feColorMatrix type="matrix" values="0 0 0 0 0.721569 0 0 0 0 0.690196 0 0 0 0 0.701961 0 0 0 1 0"/>
<feBlend mode="normal" in2="effect1_dropShadow_1_1377" result="effect2_dropShadow_1_1377"/>
<feColorMatrix in="SourceAlpha" type="matrix" values="0 0 0 0 0 0 0 0 0 0 0 0 0 0 0 0 0 0 127 0" result="hardAlpha"/>
<feOffset dx="0.1" dy="-0.1"/>
<feGaussianBlur stdDeviation="0.05"/>
<feComposite in2="hardAlpha" operator="out"/>
<feColorMatrix type="matrix" values="0 0 0 0 0.615686 0 0 0 0 0.560784 0 0 0 0 0.65098 0 0 0 1 0"/>
<feBlend mode="normal" in2="effect2_dropShadow_1_1377" result="effect3_dropShadow_1_1377"/>
<feBlend mode="normal" in="SourceGraphic" in2="effect3_dropShadow_1_1377" result="shape"/>
</filter>
<filter id="filter2_d_1_1377" x="1.39053" y="15.1361" width="6.00703" height="5.62416" filterUnits="userSpaceOnUse" color-interpolation-filters="sRGB">
<feFlood flood-opacity="0" result="BackgroundImageFix"/>
<feColorMatrix in="SourceAlpha" type="matrix" values="0 0 0 0 0 0 0 0 0 0 0 0 0 0 0 0 0 0 127 0" result="hardAlpha"/>
<feOffset dy="-0.2"/>
<feGaussianBlur stdDeviation="0.2"/>
<feComposite in2="hardAlpha" operator="out"/>
<feColorMatrix type="matrix" values="0 0 0 0 0.847059 0 0 0 0 0.505882 0 0 0 0 0.360784 0 0 0 1 0"/>
<feBlend mode="normal" in2="BackgroundImageFix" result="effect1_dropShadow_1_1377"/>
<feBlend mode="normal" in="SourceGraphic" in2="effect1_dropShadow_1_1377" result="shape"/>
</filter>
<filter id="filter3_f_1_1377" x="5.68384" y="11.317" width="5.86719" height="6.42615" filterUnits="userSpaceOnUse" color-interpolation-filters="sRGB">
<feFlood flood-opacity="0" result="BackgroundImageFix"/>
<feBlend mode="normal" in="SourceGraphic" in2="BackgroundImageFix" result="shape"/>
<feGaussianBlur stdDeviation="0.5" result="effect1_foregroundBlur_1_1377"/>
</filter>
<linearGradient id="paint0_linear_1_1377" x1="5.93176" y1="12.0887" x2="2.49426" y2="11.5222" gradientUnits="userSpaceOnUse">
<stop stop-color="#EE2452"/>
<stop offset="1" stop-color="#F63E7A"/>
</linearGradient>
<radialGradient id="paint1_radial_1_1377" cx="0" cy="0" r="1" gradientUnits="userSpaceOnUse" gradientTransform="translate(2.00407 11.9202) rotate(-19.9576) scale(5.50115 0.935311)">
<stop offset="0.164" stop-color="#FF8DB0"/>
<stop offset="1" stop-color="#FF8DB0" stop-opacity="0"/>
</radialGradient>
<linearGradient id="paint2_linear_1_1377" x1="3.72763" y1="13.7559" x2="4.28795" y2="13.2093" gradientUnits="userSpaceOnUse">
<stop offset="0.491" stop-color="#DD467C"/>
<stop offset="1" stop-color="#DD467C" stop-opacity="0"/>
</linearGradient>
<linearGradient id="paint3_linear_1_1377" x1="12.6562" y1="15.0889" x2="8.38128" y2="18.4432" gradientUnits="userSpaceOnUse">
<stop stop-color="#F83267"/>
<stop offset="1" stop-color="#FF3190"/>
</linearGradient>
<radialGradient id="paint4_radial_1_1377" cx="0" cy="0" r="1" gradientUnits="userSpaceOnUse" gradientTransform="translate(10.3788 15.4537) rotate(86.482) scale(5.25186 4.52792)">
<stop offset="0.757" stop-color="#E76CBE" stop-opacity="0"/>
<stop offset="0.951" stop-color="#E76CBE"/>
</radialGradient>
<radialGradient id="paint5_radial_1_1377" cx="0" cy="0" r="1" gradientUnits="userSpaceOnUse" gradientTransform="translate(9.60503 18.2253) rotate(-57.346) scale(3.62348 1.59161)">
<stop stop-color="#FF5898"/>
<stop offset="1" stop-color="#FF5898" stop-opacity="0"/>
</radialGradient>
<linearGradient id="paint6_linear_1_1377" x1="9.62721" y1="6.15144" x2="15.6855" y2="12.253" gradientUnits="userSpaceOnUse">
<stop stop-color="#CCBBC0"/>
<stop offset="1" stop-color="#EAD2EC"/>
</linearGradient>
<radialGradient id="paint7_radial_1_1377" cx="0" cy="0" r="1" gradientUnits="userSpaceOnUse" gradientTransform="translate(16.835 15.0236) rotate(-142.447) scale(11.4654 21.552)">
<stop offset="0.811" stop-color="#E7E5E5" stop-opacity="0"/>
<stop offset="1" stop-color="#E7E5E5"/>
</radialGradient>
<radialGradient id="paint8_radial_1_1377" cx="0" cy="0" r="1" gradientUnits="userSpaceOnUse" gradientTransform="translate(6.66752 14.8401) rotate(-56.929) scale(6.74012 3.16779)">
<stop offset="0.281" stop-color="#B5A3A5"/>
<stop offset="1" stop-color="#B5A3A5" stop-opacity="0"/>
</radialGradient>
<radialGradient id="paint9_radial_1_1377" cx="0" cy="0" r="1" gradientUnits="userSpaceOnUse" gradientTransform="translate(4.71731 14.0018) rotate(-73.625) scale(5.97519 1.01248)">
<stop offset="0.208" stop-color="#B28F96"/>
<stop offset="1" stop-color="#B28F96" stop-opacity="0"/>
</radialGradient>
<radialGradient id="paint10_radial_1_1377" cx="0" cy="0" r="1" gradientUnits="userSpaceOnUse" gradientTransform="translate(18.9937 5.07757) rotate(137.284) scale(9.05781 2.81235)">
<stop stop-color="#FAECF1"/>
<stop offset="1" stop-color="#FAECF1" stop-opacity="0"/>
</radialGradient>
<linearGradient id="paint11_linear_1_1377" x1="12.5799" y1="7.402" x2="17.1992" y2="7.79456" gradientUnits="userSpaceOnUse">
<stop stop-color="#A796A0"/>
<stop offset="1" stop-color="#A5959F"/>
</linearGradient>
<radialGradient id="paint12_radial_1_1377" cx="0" cy="0" r="1" gradientUnits="userSpaceOnUse" gradientTransform="translate(14.8906 7.79456) rotate(90) scale(2.30957)">
<stop offset="0.587" stop-color="#93859B"/>
<stop offset="1" stop-color="#93859B" stop-opacity="0"/>
</radialGradient>
<radialGradient id="paint13_radial_1_1377" cx="0" cy="0" r="1" gradientUnits="userSpaceOnUse" gradientTransform="translate(14.8893 9.39367) rotate(-90) scale(3.33134 3.06368)">
<stop stop-color="#72CDFF"/>
<stop offset="0.738" stop-color="#66ACFF"/>
<stop offset="1" stop-color="#3B57F4"/>
</radialGradient>
<radialGradient id="paint14_radial_1_1377" cx="0" cy="0" r="1" gradientUnits="userSpaceOnUse" gradientTransform="translate(5.98679 16.8593) rotate(135) scale(3.99193 3.13775)">
<stop stop-color="#D46213"/>
<stop offset="1" stop-color="#FF9542"/>
</radialGradient>
<radialGradient id="paint15_radial_1_1377" cx="0" cy="0" r="1" gradientUnits="userSpaceOnUse" gradientTransform="translate(6.06448 20.1063) rotate(-131.186) scale(4.93249 5.19802)">
<stop offset="0.871" stop-color="#FFC484" stop-opacity="0"/>
<stop offset="1" stop-color="#FFC484"/>
</radialGradient>
<linearGradient id="paint16_linear_1_1377" x1="4.34164" y1="15.2822" x2="8.12289" y2="18.9988" gradientUnits="userSpaceOnUse">
<stop stop-color="#452860"/>
<stop offset="1" stop-color="#51509F"/>
</linearGradient>
<radialGradient id="paint17_radial_1_1377" cx="0" cy="0" r="1" gradientUnits="userSpaceOnUse" gradientTransform="translate(5.05114 14.9384) rotate(77.8285) scale(1.1209 0.990344)">
<stop stop-color="#8E839A"/>
<stop offset="1" stop-color="#8E839A" stop-opacity="0"/>
</radialGradient>
<radialGradient id="paint18_radial_1_1377" cx="0" cy="0" r="1" gradientUnits="userSpaceOnUse" gradientTransform="translate(5.31032 15.6018) rotate(47.9357) scale(4.27096 2.23875)">
<stop offset="0.86" stop-color="#6175B9" stop-opacity="0"/>
<stop offset="1" stop-color="#6175B9"/>
</radialGradient>
<linearGradient id="paint19_linear_1_1377" x1="20.4148" y1="2.1667" x2="17.8875" y2="4.69395" gradientUnits="userSpaceOnUse">
<stop stop-color="#FF3745"/>
<stop offset="1" stop-color="#ED224B"/>
</linearGradient>
<radialGradient id="paint20_radial_1_1377" cx="0" cy="0" r="1" gradientUnits="userSpaceOnUse" gradientTransform="translate(20.1136 3.17865) rotate(135) scale(5.66965 1.36104)">
<stop offset="0.189" stop-color="#FF5971"/>
<stop offset="1" stop-color="#FF5971" stop-opacity="0"/>
</radialGradient>
<linearGradient id="paint21_linear_1_1377" x1="18.1082" y1="4.86239" x2="18.3605" y2="4.59907" gradientUnits="userSpaceOnUse">
<stop stop-color="#D2575E"/>
<stop offset="1" stop-color="#F93251" stop-opacity="0"/>
</linearGradient>
<linearGradient id="paint22_linear_1_1377" x1="10.7779" y1="11.9216" x2="6.31878" y2="16.3807" gradientUnits="userSpaceOnUse">
<stop stop-color="#FF2644"/>
<stop offset="1" stop-color="#FF2982"/>
</linearGradient>
<radialGradient id="paint23_radial_1_1377" cx="0" cy="0" r="1" gradientUnits="userSpaceOnUse" gradientTransform="translate(4.64265 13.5421) rotate(-20.865) scale(5.12725 1.34227)">
<stop stop-color="#FF95AF"/>
<stop offset="1" stop-color="#FF95AF" stop-opacity="0"/>
</radialGradient>
<radialGradient id="paint24_radial_1_1377" cx="0" cy="0" r="1" gradientUnits="userSpaceOnUse" gradientTransform="translate(4.06653 14.1512) rotate(44.7044) scale(3.16952 0.936247)">
<stop offset="0.382" stop-color="#E14678"/>
<stop offset="1" stop-color="#E14678" stop-opacity="0"/>
</radialGradient>
<radialGradient id="paint25_radial_1_1377" cx="0" cy="0" r="1" gradientUnits="userSpaceOnUse" gradientTransform="translate(8.31665 13.3482) rotate(84.6743) scale(5.09229 5.42658)">
<stop offset="0.832" stop-color="#E67BC7" stop-opacity="0"/>
<stop offset="1" stop-color="#E67BC7"/>
</radialGradient>
<linearGradient id="paint26_linear_1_1377" x1="9.97078" y1="12.6394" x2="7.13484" y2="15.6046" gradientUnits="userSpaceOnUse">
<stop stop-color="#FF5970"/>
<stop offset="1" stop-color="#FF5794"/>
</linearGradient>
</defs>
</svg>
